<?xml version="1.0" encoding="UTF-8"?>
<svg xmlns="http://www.w3.org/2000/svg" viewBox="0 0 1024 1024">
  <g transform="translate(258.56 51.2) scale(7.68)">
    <rect x="0" y="0" width="10" height="20" fill="#ced7e0"/>
    <rect x="10" y="0" width="10" height="20" fill="#ced7e0"/>
    <rect x="20" y="0" width="10" height="20" fill="#ced7e0"/>
    <rect x="30" y="0" width="10" height="20" fill="#ced7e0"/>
    <rect x="40" y="0" width="10" height="20" fill="#ced7e0"/>
    <rect x="50" y="0" width="10" height="20" fill="#ced7e0"/>
    <rect x="60" y="8" width="6" height="3" fill="#ced7e0"/>
    <rect x="63" y="11" width="3" height="9" fill="#ced7e0"/>
    <rect x="0" y="20" width="10" height="20" fill="#9ccddc"/>
    <rect x="10" y="20" width="10" height="20" fill="#9ccddc"/>
    <rect x="26" y="28" width="4" height="3" fill="#9ccddc"/>
    <rect x="23" y="28" width="3" height="12" fill="#9ccddc"/>
    <rect x="30" y="28" width="10" height="3" fill="#9ccddc"/>
    <rect x="40" y="28" width="10" height="3" fill="#9ccddc"/>
    <rect x="50" y="28" width="10" height="3" fill="#9ccddc"/>
    <rect x="63" y="20" width="3" height="11" fill="#9ccddc"/>
    <rect x="60" y="28" width="3" height="3" fill="#9ccddc"/>
    <rect x="0" y="40" width="10" height="20" fill="#5591a9"/>
    <rect x="10" y="40" width="10" height="20" fill="#5591a9"/>
    <rect x="23" y="40" width="3" height="20" fill="#5591a9"/>
    <rect x="0" y="60" width="10" height="20" fill="#054569"/>
    <rect x="10" y="60" width="10" height="20" fill="#054569"/>
    <rect x="23" y="60" width="3" height="20" fill="#054569"/>
    <rect x="0" y="80" width="10" height="20" fill="#062c43"/>
    <rect x="10" y="80" width="10" height="20" fill="#062c43"/>
    <rect x="20" y="80" width="10" height="20" fill="#062c43"/>
    <rect x="30" y="80" width="10" height="20" fill="#062c43"/>
    <rect x="40" y="80" width="10" height="20" fill="#062c43"/>
    <rect x="50" y="80" width="10" height="20" fill="#062c43"/>
    <rect x="60" y="88" width="6" height="3" fill="#062c43"/>
    <rect x="63" y="91" width="3" height="9" fill="#062c43"/>
    <rect x="3" y="100" width="3" height="11" fill="#000000"/>
    <rect x="6" y="108" width="4" height="3" fill="#000000"/>
    <rect x="10" y="108" width="10" height="3" fill="#000000"/>
    <rect x="20" y="108" width="10" height="3" fill="#000000"/>
    <rect x="30" y="108" width="10" height="3" fill="#000000"/>
    <rect x="40" y="108" width="10" height="3" fill="#000000"/>
    <rect x="50" y="108" width="10" height="3" fill="#000000"/>
    <rect x="63" y="100" width="3" height="11" fill="#000000"/>
    <rect x="60" y="108" width="3" height="3" fill="#000000"/>
  </g>
</svg>
