<?xml version="1.0" encoding="UTF-8"?>
<svg width="670" height="120" xmlns="http://www.w3.org/2000/svg">
  <rect x="0" y="0" width="10" height="20" fill="#ced7e0"/>
  <rect x="10" y="0" width="10" height="20" fill="#ced7e0"/>
  <rect x="20" y="0" width="10" height="20" fill="#ced7e0"/>
  <rect x="30" y="0" width="10" height="20" fill="#ced7e0"/>
  <rect x="40" y="0" width="10" height="20" fill="#ced7e0"/>
  <rect x="50" y="0" width="10" height="20" fill="#ced7e0"/>
  <rect x="60" y="8" width="6" height="3" fill="#ced7e0"/>
  <rect x="63" y="11" width="3" height="9" fill="#ced7e0"/>
  <rect x="80" y="0" width="10" height="20" fill="#ced7e0"/>
  <rect x="90" y="0" width="10" height="20" fill="#ced7e0"/>
  <rect x="100" y="0" width="10" height="20" fill="#ced7e0"/>
  <rect x="110" y="0" width="10" height="20" fill="#ced7e0"/>
  <rect x="120" y="0" width="10" height="20" fill="#ced7e0"/>
  <rect x="130" y="0" width="10" height="20" fill="#ced7e0"/>
  <rect x="140" y="8" width="6" height="3" fill="#ced7e0"/>
  <rect x="143" y="11" width="3" height="9" fill="#ced7e0"/>
  <rect x="160" y="0" width="10" height="20" fill="#ced7e0"/>
  <rect x="170" y="0" width="10" height="20" fill="#ced7e0"/>
  <rect x="180" y="0" width="10" height="20" fill="#ced7e0"/>
  <rect x="190" y="0" width="10" height="20" fill="#ced7e0"/>
  <rect x="200" y="0" width="10" height="20" fill="#ced7e0"/>
  <rect x="210" y="0" width="10" height="20" fill="#ced7e0"/>
  <rect x="220" y="8" width="6" height="3" fill="#ced7e0"/>
  <rect x="223" y="11" width="3" height="9" fill="#ced7e0"/>
  <rect x="240" y="0" width="10" height="20" fill="#ced7e0"/>
  <rect x="250" y="0" width="10" height="20" fill="#ced7e0"/>
  <rect x="260" y="8" width="6" height="3" fill="#ced7e0"/>
  <rect x="263" y="11" width="3" height="9" fill="#ced7e0"/>
  <rect x="320" y="0" width="10" height="20" fill="#ced7e0"/>
  <rect x="330" y="0" width="10" height="20" fill="#ced7e0"/>
  <rect x="340" y="8" width="6" height="3" fill="#ced7e0"/>
  <rect x="343" y="11" width="3" height="9" fill="#ced7e0"/>
  <rect x="360" y="0" width="10" height="20" fill="#ced7e0"/>
  <rect x="370" y="0" width="10" height="20" fill="#ced7e0"/>
  <rect x="380" y="0" width="10" height="20" fill="#ced7e0"/>
  <rect x="390" y="0" width="10" height="20" fill="#ced7e0"/>
  <rect x="400" y="0" width="10" height="20" fill="#ced7e0"/>
  <rect x="410" y="0" width="10" height="20" fill="#ced7e0"/>
  <rect x="420" y="8" width="6" height="3" fill="#ced7e0"/>
  <rect x="423" y="11" width="3" height="9" fill="#ced7e0"/>
  <rect x="0" y="20" width="10" height="20" fill="#9ccddc"/>
  <rect x="10" y="20" width="10" height="20" fill="#9ccddc"/>
  <rect x="26" y="28" width="4" height="3" fill="#9ccddc"/>
  <rect x="23" y="28" width="3" height="12" fill="#9ccddc"/>
  <rect x="30" y="28" width="10" height="3" fill="#9ccddc"/>
  <rect x="40" y="28" width="10" height="3" fill="#9ccddc"/>
  <rect x="50" y="28" width="10" height="3" fill="#9ccddc"/>
  <rect x="63" y="20" width="3" height="11" fill="#9ccddc"/>
  <rect x="60" y="28" width="3" height="3" fill="#9ccddc"/>
  <rect x="80" y="20" width="10" height="20" fill="#9ccddc"/>
  <rect x="90" y="20" width="10" height="20" fill="#9ccddc"/>
  <rect x="106" y="28" width="4" height="3" fill="#9ccddc"/>
  <rect x="103" y="28" width="3" height="12" fill="#9ccddc"/>
  <rect x="110" y="28" width="10" height="3" fill="#9ccddc"/>
  <rect x="120" y="20" width="10" height="20" fill="#9ccddc"/>
  <rect x="130" y="20" width="10" height="20" fill="#9ccddc"/>
  <rect x="143" y="20" width="3" height="20" fill="#9ccddc"/>
  <rect x="160" y="20" width="10" height="20" fill="#9ccddc"/>
  <rect x="170" y="20" width="10" height="20" fill="#9ccddc"/>
  <rect x="186" y="28" width="4" height="3" fill="#9ccddc"/>
  <rect x="183" y="28" width="3" height="12" fill="#9ccddc"/>
  <rect x="190" y="28" width="10" height="3" fill="#9ccddc"/>
  <rect x="200" y="28" width="10" height="3" fill="#9ccddc"/>
  <rect x="210" y="28" width="10" height="3" fill="#9ccddc"/>
  <rect x="223" y="20" width="3" height="11" fill="#9ccddc"/>
  <rect x="220" y="28" width="3" height="3" fill="#9ccddc"/>
  <rect x="240" y="20" width="10" height="20" fill="#9ccddc"/>
  <rect x="250" y="20" width="10" height="20" fill="#9ccddc"/>
  <rect x="260" y="20" width="10" height="20" fill="#9ccddc"/>
  <rect x="270" y="20" width="10" height="20" fill="#9ccddc"/>
  <rect x="280" y="28" width="6" height="3" fill="#9ccddc"/>
  <rect x="283" y="31" width="3" height="9" fill="#9ccddc"/>
  <rect x="300" y="20" width="10" height="20" fill="#9ccddc"/>
  <rect x="310" y="20" width="10" height="20" fill="#9ccddc"/>
  <rect x="320" y="20" width="10" height="20" fill="#9ccddc"/>
  <rect x="330" y="20" width="10" height="20" fill="#9ccddc"/>
  <rect x="343" y="20" width="3" height="20" fill="#9ccddc"/>
  <rect x="360" y="20" width="10" height="20" fill="#9ccddc"/>
  <rect x="370" y="20" width="10" height="20" fill="#9ccddc"/>
  <rect x="386" y="28" width="4" height="3" fill="#9ccddc"/>
  <rect x="383" y="28" width="3" height="12" fill="#9ccddc"/>
  <rect x="390" y="28" width="10" height="3" fill="#9ccddc"/>
  <rect x="400" y="20" width="10" height="20" fill="#9ccddc"/>
  <rect x="410" y="20" width="10" height="20" fill="#9ccddc"/>
  <rect x="423" y="20" width="3" height="20" fill="#9ccddc"/>
  <rect x="0" y="40" width="10" height="20" fill="#5591a9"/>
  <rect x="10" y="40" width="10" height="20" fill="#5591a9"/>
  <rect x="23" y="40" width="3" height="20" fill="#5591a9"/>
  <rect x="80" y="40" width="10" height="20" fill="#5591a9"/>
  <rect x="90" y="40" width="10" height="20" fill="#5591a9"/>
  <rect x="103" y="40" width="3" height="20" fill="#5591a9"/>
  <rect x="120" y="40" width="10" height="20" fill="#5591a9"/>
  <rect x="130" y="40" width="10" height="20" fill="#5591a9"/>
  <rect x="143" y="40" width="3" height="20" fill="#5591a9"/>
  <rect x="160" y="40" width="10" height="20" fill="#5591a9"/>
  <rect x="170" y="40" width="10" height="20" fill="#5591a9"/>
  <rect x="180" y="40" width="10" height="20" fill="#5591a9"/>
  <rect x="190" y="40" width="10" height="20" fill="#5591a9"/>
  <rect x="200" y="40" width="10" height="20" fill="#5591a9"/>
  <rect x="210" y="40" width="10" height="20" fill="#5591a9"/>
  <rect x="220" y="48" width="6" height="3" fill="#5591a9"/>
  <rect x="223" y="51" width="3" height="9" fill="#5591a9"/>
  <rect x="240" y="40" width="10" height="20" fill="#5591a9"/>
  <rect x="250" y="40" width="10" height="20" fill="#5591a9"/>
  <rect x="266" y="48" width="4" height="3" fill="#5591a9"/>
  <rect x="263" y="48" width="3" height="12" fill="#5591a9"/>
  <rect x="270" y="48" width="10" height="3" fill="#5591a9"/>
  <rect x="280" y="40" width="10" height="20" fill="#5591a9"/>
  <rect x="290" y="40" width="10" height="20" fill="#5591a9"/>
  <rect x="306" y="48" width="4" height="3" fill="#5591a9"/>
  <rect x="303" y="48" width="3" height="12" fill="#5591a9"/>
  <rect x="310" y="48" width="10" height="3" fill="#5591a9"/>
  <rect x="320" y="40" width="10" height="20" fill="#5591a9"/>
  <rect x="330" y="40" width="10" height="20" fill="#5591a9"/>
  <rect x="343" y="40" width="3" height="20" fill="#5591a9"/>
  <rect x="360" y="40" width="10" height="20" fill="#5591a9"/>
  <rect x="370" y="40" width="10" height="20" fill="#5591a9"/>
  <rect x="383" y="40" width="3" height="20" fill="#5591a9"/>
  <rect x="400" y="40" width="10" height="20" fill="#5591a9"/>
  <rect x="410" y="40" width="10" height="20" fill="#5591a9"/>
  <rect x="423" y="40" width="3" height="20" fill="#5591a9"/>
  <rect x="0" y="60" width="10" height="20" fill="#054569"/>
  <rect x="10" y="60" width="10" height="20" fill="#054569"/>
  <rect x="23" y="60" width="3" height="20" fill="#054569"/>
  <rect x="80" y="60" width="10" height="20" fill="#054569"/>
  <rect x="90" y="60" width="10" height="20" fill="#054569"/>
  <rect x="103" y="60" width="3" height="20" fill="#054569"/>
  <rect x="120" y="60" width="10" height="20" fill="#054569"/>
  <rect x="130" y="60" width="10" height="20" fill="#054569"/>
  <rect x="143" y="60" width="3" height="20" fill="#054569"/>
  <rect x="163" y="60" width="3" height="11" fill="#054569"/>
  <rect x="166" y="68" width="4" height="3" fill="#054569"/>
  <rect x="170" y="68" width="10" height="3" fill="#054569"/>
  <rect x="180" y="68" width="10" height="3" fill="#054569"/>
  <rect x="190" y="68" width="10" height="3" fill="#054569"/>
  <rect x="200" y="60" width="10" height="20" fill="#054569"/>
  <rect x="210" y="60" width="10" height="20" fill="#054569"/>
  <rect x="223" y="60" width="3" height="20" fill="#054569"/>
  <rect x="240" y="60" width="10" height="20" fill="#054569"/>
  <rect x="250" y="60" width="10" height="20" fill="#054569"/>
  <rect x="263" y="60" width="3" height="20" fill="#054569"/>
  <rect x="283" y="60" width="3" height="11" fill="#054569"/>
  <rect x="286" y="68" width="4" height="3" fill="#054569"/>
  <rect x="290" y="68" width="10" height="3" fill="#054569"/>
  <rect x="303" y="60" width="3" height="11" fill="#054569"/>
  <rect x="300" y="68" width="3" height="3" fill="#054569"/>
  <rect x="320" y="60" width="10" height="20" fill="#054569"/>
  <rect x="330" y="60" width="10" height="20" fill="#054569"/>
  <rect x="343" y="60" width="3" height="20" fill="#054569"/>
  <rect x="360" y="60" width="10" height="20" fill="#054569"/>
  <rect x="370" y="60" width="10" height="20" fill="#054569"/>
  <rect x="383" y="60" width="3" height="20" fill="#054569"/>
  <rect x="400" y="60" width="10" height="20" fill="#054569"/>
  <rect x="410" y="60" width="10" height="20" fill="#054569"/>
  <rect x="423" y="60" width="3" height="20" fill="#054569"/>
  <rect x="0" y="80" width="10" height="20" fill="#062c43"/>
  <rect x="10" y="80" width="10" height="20" fill="#062c43"/>
  <rect x="20" y="80" width="10" height="20" fill="#062c43"/>
  <rect x="30" y="80" width="10" height="20" fill="#062c43"/>
  <rect x="40" y="80" width="10" height="20" fill="#062c43"/>
  <rect x="50" y="80" width="10" height="20" fill="#062c43"/>
  <rect x="60" y="88" width="6" height="3" fill="#062c43"/>
  <rect x="63" y="91" width="3" height="9" fill="#062c43"/>
  <rect x="80" y="80" width="10" height="20" fill="#062c43"/>
  <rect x="90" y="80" width="10" height="20" fill="#062c43"/>
  <rect x="100" y="80" width="10" height="20" fill="#062c43"/>
  <rect x="110" y="80" width="10" height="20" fill="#062c43"/>
  <rect x="120" y="80" width="10" height="20" fill="#062c43"/>
  <rect x="130" y="80" width="10" height="20" fill="#062c43"/>
  <rect x="143" y="80" width="3" height="20" fill="#062c43"/>
  <rect x="160" y="80" width="10" height="20" fill="#062c43"/>
  <rect x="170" y="80" width="10" height="20" fill="#062c43"/>
  <rect x="180" y="80" width="10" height="20" fill="#062c43"/>
  <rect x="190" y="80" width="10" height="20" fill="#062c43"/>
  <rect x="200" y="80" width="10" height="20" fill="#062c43"/>
  <rect x="210" y="80" width="10" height="20" fill="#062c43"/>
  <rect x="223" y="80" width="3" height="20" fill="#062c43"/>
  <rect x="240" y="80" width="10" height="20" fill="#062c43"/>
  <rect x="250" y="80" width="10" height="20" fill="#062c43"/>
  <rect x="263" y="80" width="3" height="20" fill="#062c43"/>
  <rect x="320" y="80" width="10" height="20" fill="#062c43"/>
  <rect x="330" y="80" width="10" height="20" fill="#062c43"/>
  <rect x="343" y="80" width="3" height="20" fill="#062c43"/>
  <rect x="360" y="80" width="10" height="20" fill="#062c43"/>
  <rect x="370" y="80" width="10" height="20" fill="#062c43"/>
  <rect x="380" y="80" width="10" height="20" fill="#062c43"/>
  <rect x="390" y="80" width="10" height="20" fill="#062c43"/>
  <rect x="400" y="80" width="10" height="20" fill="#062c43"/>
  <rect x="410" y="80" width="10" height="20" fill="#062c43"/>
  <rect x="423" y="80" width="3" height="20" fill="#062c43"/>
  <rect x="3" y="100" width="3" height="11" fill="#000000"/>
  <rect x="6" y="108" width="4" height="3" fill="#000000"/>
  <rect x="10" y="108" width="10" height="3" fill="#000000"/>
  <rect x="20" y="108" width="10" height="3" fill="#000000"/>
  <rect x="30" y="108" width="10" height="3" fill="#000000"/>
  <rect x="40" y="108" width="10" height="3" fill="#000000"/>
  <rect x="50" y="108" width="10" height="3" fill="#000000"/>
  <rect x="63" y="100" width="3" height="11" fill="#000000"/>
  <rect x="60" y="108" width="3" height="3" fill="#000000"/>
  <rect x="83" y="100" width="3" height="11" fill="#000000"/>
  <rect x="86" y="108" width="4" height="3" fill="#000000"/>
  <rect x="90" y="108" width="10" height="3" fill="#000000"/>
  <rect x="100" y="108" width="10" height="3" fill="#000000"/>
  <rect x="110" y="108" width="10" height="3" fill="#000000"/>
  <rect x="120" y="108" width="10" height="3" fill="#000000"/>
  <rect x="130" y="108" width="10" height="3" fill="#000000"/>
  <rect x="143" y="100" width="3" height="11" fill="#000000"/>
  <rect x="140" y="108" width="3" height="3" fill="#000000"/>
  <rect x="163" y="100" width="3" height="11" fill="#000000"/>
  <rect x="166" y="108" width="4" height="3" fill="#000000"/>
  <rect x="170" y="108" width="10" height="3" fill="#000000"/>
  <rect x="180" y="108" width="10" height="3" fill="#000000"/>
  <rect x="190" y="108" width="10" height="3" fill="#000000"/>
  <rect x="200" y="108" width="10" height="3" fill="#000000"/>
  <rect x="210" y="108" width="10" height="3" fill="#000000"/>
  <rect x="223" y="100" width="3" height="11" fill="#000000"/>
  <rect x="220" y="108" width="3" height="3" fill="#000000"/>
  <rect x="243" y="100" width="3" height="11" fill="#000000"/>
  <rect x="246" y="108" width="4" height="3" fill="#000000"/>
  <rect x="250" y="108" width="10" height="3" fill="#000000"/>
  <rect x="263" y="100" width="3" height="11" fill="#000000"/>
  <rect x="260" y="108" width="3" height="3" fill="#000000"/>
  <rect x="323" y="100" width="3" height="11" fill="#000000"/>
  <rect x="326" y="108" width="4" height="3" fill="#000000"/>
  <rect x="330" y="108" width="10" height="3" fill="#000000"/>
  <rect x="343" y="100" width="3" height="11" fill="#000000"/>
  <rect x="340" y="108" width="3" height="3" fill="#000000"/>
  <rect x="363" y="100" width="3" height="11" fill="#000000"/>
  <rect x="366" y="108" width="4" height="3" fill="#000000"/>
  <rect x="370" y="108" width="10" height="3" fill="#000000"/>
  <rect x="380" y="108" width="10" height="3" fill="#000000"/>
  <rect x="390" y="108" width="10" height="3" fill="#000000"/>
  <rect x="400" y="108" width="10" height="3" fill="#000000"/>
  <rect x="410" y="108" width="10" height="3" fill="#000000"/>
  <rect x="423" y="100" width="3" height="11" fill="#000000"/>
  <rect x="420" y="108" width="3" height="3" fill="#000000"/>
  <rect x="440" y="0" width="10" height="20" fill="#A9A9A9"/>
  <rect x="450" y="0" width="10" height="20" fill="#A9A9A9"/>
  <rect x="460" y="0" width="10" height="20" fill="#A9A9A9"/>
  <rect x="470" y="0" width="10" height="20" fill="#A9A9A9"/>
  <rect x="480" y="0" width="10" height="20" fill="#A9A9A9"/>
  <rect x="490" y="0" width="10" height="20" fill="#A9A9A9"/>
  <rect x="500" y="8" width="6" height="3" fill="#A9A9A9"/>
  <rect x="503" y="11" width="3" height="9" fill="#A9A9A9"/>
  <rect x="520" y="0" width="10" height="20" fill="#A9A9A9"/>
  <rect x="530" y="0" width="10" height="20" fill="#A9A9A9"/>
  <rect x="540" y="0" width="10" height="20" fill="#A9A9A9"/>
  <rect x="550" y="0" width="10" height="20" fill="#A9A9A9"/>
  <rect x="560" y="0" width="10" height="20" fill="#A9A9A9"/>
  <rect x="570" y="0" width="10" height="20" fill="#A9A9A9"/>
  <rect x="580" y="8" width="6" height="3" fill="#A9A9A9"/>
  <rect x="583" y="11" width="3" height="9" fill="#A9A9A9"/>
  <rect x="600" y="0" width="10" height="20" fill="#A9A9A9"/>
  <rect x="610" y="0" width="10" height="20" fill="#A9A9A9"/>
  <rect x="620" y="0" width="10" height="20" fill="#A9A9A9"/>
  <rect x="630" y="0" width="10" height="20" fill="#A9A9A9"/>
  <rect x="640" y="0" width="10" height="20" fill="#A9A9A9"/>
  <rect x="650" y="0" width="10" height="20" fill="#A9A9A9"/>
  <rect x="660" y="8" width="6" height="3" fill="#A9A9A9"/>
  <rect x="663" y="11" width="3" height="9" fill="#A9A9A9"/>
  <rect x="443" y="20" width="3" height="11" fill="#989898"/>
  <rect x="446" y="28" width="4" height="3" fill="#989898"/>
  <rect x="450" y="28" width="10" height="3" fill="#989898"/>
  <rect x="460" y="20" width="10" height="20" fill="#989898"/>
  <rect x="470" y="20" width="10" height="20" fill="#989898"/>
  <rect x="486" y="28" width="4" height="3" fill="#989898"/>
  <rect x="483" y="28" width="3" height="12" fill="#989898"/>
  <rect x="490" y="28" width="10" height="3" fill="#989898"/>
  <rect x="503" y="20" width="3" height="11" fill="#989898"/>
  <rect x="500" y="28" width="3" height="3" fill="#989898"/>
  <rect x="520" y="20" width="10" height="20" fill="#989898"/>
  <rect x="530" y="20" width="10" height="20" fill="#989898"/>
  <rect x="546" y="28" width="4" height="3" fill="#989898"/>
  <rect x="543" y="28" width="3" height="12" fill="#989898"/>
  <rect x="550" y="28" width="10" height="3" fill="#989898"/>
  <rect x="560" y="20" width="10" height="20" fill="#989898"/>
  <rect x="570" y="20" width="10" height="20" fill="#989898"/>
  <rect x="583" y="20" width="3" height="20" fill="#989898"/>
  <rect x="600" y="20" width="10" height="20" fill="#989898"/>
  <rect x="610" y="20" width="10" height="20" fill="#989898"/>
  <rect x="626" y="28" width="4" height="3" fill="#989898"/>
  <rect x="623" y="28" width="3" height="12" fill="#989898"/>
  <rect x="630" y="28" width="10" height="3" fill="#989898"/>
  <rect x="640" y="20" width="10" height="20" fill="#989898"/>
  <rect x="650" y="20" width="10" height="20" fill="#989898"/>
  <rect x="663" y="20" width="3" height="20" fill="#989898"/>
  <rect x="460" y="40" width="10" height="20" fill="#888888"/>
  <rect x="470" y="40" width="10" height="20" fill="#888888"/>
  <rect x="483" y="40" width="3" height="20" fill="#888888"/>
  <rect x="520" y="40" width="10" height="20" fill="#888888"/>
  <rect x="530" y="40" width="10" height="20" fill="#888888"/>
  <rect x="543" y="40" width="3" height="20" fill="#888888"/>
  <rect x="560" y="40" width="10" height="20" fill="#888888"/>
  <rect x="570" y="40" width="10" height="20" fill="#888888"/>
  <rect x="583" y="40" width="3" height="20" fill="#888888"/>
  <rect x="600" y="40" width="10" height="20" fill="#888888"/>
  <rect x="610" y="40" width="10" height="20" fill="#888888"/>
  <rect x="620" y="40" width="10" height="20" fill="#888888"/>
  <rect x="630" y="40" width="10" height="20" fill="#888888"/>
  <rect x="640" y="40" width="10" height="20" fill="#888888"/>
  <rect x="650" y="40" width="10" height="20" fill="#888888"/>
  <rect x="663" y="40" width="3" height="20" fill="#888888"/>
  <rect x="460" y="60" width="10" height="20" fill="#777777"/>
  <rect x="470" y="60" width="10" height="20" fill="#777777"/>
  <rect x="483" y="60" width="3" height="20" fill="#777777"/>
  <rect x="520" y="60" width="10" height="20" fill="#777777"/>
  <rect x="530" y="60" width="10" height="20" fill="#777777"/>
  <rect x="543" y="60" width="3" height="20" fill="#777777"/>
  <rect x="560" y="60" width="10" height="20" fill="#777777"/>
  <rect x="570" y="60" width="10" height="20" fill="#777777"/>
  <rect x="583" y="60" width="3" height="20" fill="#777777"/>
  <rect x="600" y="60" width="10" height="20" fill="#777777"/>
  <rect x="610" y="60" width="10" height="20" fill="#777777"/>
  <rect x="626" y="68" width="4" height="3" fill="#777777"/>
  <rect x="623" y="68" width="3" height="12" fill="#777777"/>
  <rect x="630" y="68" width="10" height="3" fill="#777777"/>
  <rect x="640" y="68" width="10" height="3" fill="#777777"/>
  <rect x="650" y="68" width="10" height="3" fill="#777777"/>
  <rect x="663" y="60" width="3" height="11" fill="#777777"/>
  <rect x="660" y="68" width="3" height="3" fill="#777777"/>
  <rect x="460" y="80" width="10" height="20" fill="#666666"/>
  <rect x="470" y="80" width="10" height="20" fill="#666666"/>
  <rect x="483" y="80" width="3" height="20" fill="#666666"/>
  <rect x="520" y="80" width="10" height="20" fill="#666666"/>
  <rect x="530" y="80" width="10" height="20" fill="#666666"/>
  <rect x="540" y="80" width="10" height="20" fill="#666666"/>
  <rect x="550" y="80" width="10" height="20" fill="#666666"/>
  <rect x="560" y="80" width="10" height="20" fill="#666666"/>
  <rect x="570" y="80" width="10" height="20" fill="#666666"/>
  <rect x="583" y="80" width="3" height="20" fill="#666666"/>
  <rect x="600" y="80" width="10" height="20" fill="#666666"/>
  <rect x="610" y="80" width="10" height="20" fill="#666666"/>
  <rect x="623" y="80" width="3" height="20" fill="#666666"/>
  <rect x="463" y="100" width="3" height="11" fill="#000000"/>
  <rect x="466" y="108" width="4" height="3" fill="#000000"/>
  <rect x="470" y="108" width="10" height="3" fill="#000000"/>
  <rect x="483" y="100" width="3" height="11" fill="#000000"/>
  <rect x="480" y="108" width="3" height="3" fill="#000000"/>
  <rect x="523" y="100" width="3" height="11" fill="#000000"/>
  <rect x="526" y="108" width="4" height="3" fill="#000000"/>
  <rect x="530" y="108" width="10" height="3" fill="#000000"/>
  <rect x="540" y="108" width="10" height="3" fill="#000000"/>
  <rect x="550" y="108" width="10" height="3" fill="#000000"/>
  <rect x="560" y="108" width="10" height="3" fill="#000000"/>
  <rect x="570" y="108" width="10" height="3" fill="#000000"/>
  <rect x="583" y="100" width="3" height="11" fill="#000000"/>
  <rect x="580" y="108" width="3" height="3" fill="#000000"/>
  <rect x="603" y="100" width="3" height="11" fill="#000000"/>
  <rect x="606" y="108" width="4" height="3" fill="#000000"/>
  <rect x="610" y="108" width="10" height="3" fill="#000000"/>
  <rect x="623" y="100" width="3" height="11" fill="#000000"/>
  <rect x="620" y="108" width="3" height="3" fill="#000000"/>
</svg>
